<svg xmlns="http://www.w3.org/2000/svg" xmlns:xlink="http://www.w3.org/1999/xlink" width="645" zoomAndPan="magnify" viewBox="0 0 483.75 135.000003" height="180" preserveAspectRatio="xMidYMid meet" version="1.0"><defs><g/><clipPath id="90b530eb48"><path d="M 382.691406 6.433594 L 428.128906 6.433594 L 428.128906 120.398438 L 382.691406 120.398438 Z M 382.691406 6.433594 " clip-rule="nonzero"/></clipPath></defs><g clip-path="url(#90b530eb48)"><path fill="#ffffff" d="M 391.046875 27.460938 C 391.046875 27.480469 391.046875 27.496094 391.046875 27.515625 L 391.011719 27.574219 C 391.03125 27.535156 391.03125 27.496094 391.046875 27.460938 Z M 383.179688 50.691406 C 383.640625 52.988281 384.632812 55.761719 386.160156 59.007812 C 386.886719 60.492188 387.667969 61.933594 388.488281 63.339844 C 392.347656 69.589844 394.257812 72.761719 394.257812 72.894531 C 394.886719 73.921875 395.59375 75.496094 396.414062 77.625 C 397.121094 79.867188 397.597656 81.878906 397.808594 83.703125 C 397.941406 84.878906 398.054688 86 398.132812 87.027344 C 398.246094 89.722656 398.34375 91.472656 398.382812 92.289062 L 398.09375 93.445312 C 398.054688 93.558594 398.132812 93.695312 398.285156 93.863281 L 398.304688 93.84375 C 398.4375 93.65625 398.570312 93.464844 398.707031 93.273438 C 398.726562 93.292969 398.742188 93.292969 398.761719 93.3125 L 398.78125 93.273438 C 398.800781 93.21875 398.820312 93.160156 398.820312 93.105469 C 400.519531 90.617188 401.800781 88.089844 402.675781 85.507812 C 403.117188 84.328125 403.480469 82.789062 403.746094 80.929688 C 403.917969 79.523438 403.976562 78.023438 403.917969 76.425781 C 403.863281 75.230469 403.652344 73.636719 403.269531 71.621094 C 403.117188 70.632812 402.542969 68.449219 401.53125 65.011719 C 400.824219 62.769531 400.367188 61.328125 400.117188 60.660156 C 397.539062 54.90625 395.996094 51.183594 395.460938 49.492188 C 395.019531 48.277344 394.621094 47.003906 394.292969 45.636719 C 400.175781 52.226562 404.1875 57.109375 406.304688 60.261719 C 409.4375 64.707031 411.367188 69.078125 412.074219 73.386719 C 412.359375 75.421875 412.359375 77.566406 412.074219 79.828125 C 411.882812 81.347656 411.574219 82.789062 411.175781 84.175781 C 410.910156 85.203125 410.199219 87.195312 409.015625 90.105469 L 403.460938 102.507812 C 402.449219 105.070312 401.820312 107.160156 401.570312 108.757812 C 401.148438 111.09375 401.035156 113.199219 401.226562 115.042969 C 401.359375 116.503906 401.628906 117.988281 402.027344 119.507812 C 402.105469 120.09375 402.277344 120.398438 402.523438 120.398438 C 402.542969 120.398438 402.5625 120.398438 402.582031 120.378906 L 402.601562 120.363281 C 402.621094 119.695312 402.660156 119.050781 402.714844 118.425781 C 403.9375 114.949219 405.390625 111.984375 407.089844 109.515625 C 407.71875 108.546875 408.558594 107.371094 409.609375 105.945312 C 415.011719 99.238281 418.203125 95.136719 419.195312 93.636719 C 421.046875 91.035156 422.519531 88.660156 423.664062 86.492188 C 425.34375 83.226562 426.546875 80.1875 427.234375 77.339844 C 427.84375 74.546875 428.113281 72.171875 428.019531 70.214844 C 427.902344 67.386719 427.464844 64.746094 426.679688 62.332031 C 425.667969 59.675781 424.597656 57.394531 423.511719 55.496094 C 422.003906 52.855469 420.476562 50.441406 418.929688 48.257812 L 408.15625 33.632812 C 406.113281 30.574219 404.738281 28.164062 404.03125 26.375 C 402.886719 23.8125 402.066406 20.945312 401.570312 17.808594 C 401.4375 17.316406 401.265625 15.472656 401.054688 12.285156 L 400.902344 8.105469 C 400.941406 7.667969 400.941406 7.363281 400.941406 7.191406 C 400.976562 6.964844 400.996094 6.699219 401.035156 6.433594 C 401.015625 6.605469 400.976562 6.792969 400.941406 7.003906 C 400.921875 6.90625 400.882812 6.851562 400.785156 6.851562 L 400.691406 6.890625 C 400.597656 6.964844 400.40625 7.136719 400.15625 7.402344 C 395.382812 10.003906 391.125 15.757812 387.382812 24.707031 C 385.433594 29.320312 384.078125 34.03125 383.296875 38.855469 C 382.894531 41.574219 382.703125 43.738281 382.761719 45.371094 C 382.78125 47.519531 382.914062 49.285156 383.179688 50.691406 " fill-opacity="1" fill-rule="evenodd"/></g><g fill="#ffffff" fill-opacity="1"><g transform="translate(37.917877, 90.825803)"><g><path d="M 32.609375 1.09375 C 26.898438 1.09375 21.773438 -0.113281 17.234375 -2.53125 C 12.703125 -4.945312 9.132812 -8.304688 6.53125 -12.609375 C 3.9375 -16.921875 2.640625 -21.800781 2.640625 -27.25 C 2.640625 -32.695312 3.9375 -37.570312 6.53125 -41.875 C 9.132812 -46.1875 12.703125 -49.546875 17.234375 -51.953125 C 21.773438 -54.367188 26.898438 -55.578125 32.609375 -55.578125 C 37.597656 -55.578125 42.085938 -54.691406 46.078125 -52.921875 C 50.078125 -51.160156 53.398438 -48.625 56.046875 -45.3125 L 46.234375 -36.4375 C 42.710938 -40.6875 38.429688 -42.8125 33.390625 -42.8125 C 30.429688 -42.8125 27.796875 -42.160156 25.484375 -40.859375 C 23.179688 -39.566406 21.394531 -37.738281 20.125 -35.375 C 18.851562 -33.019531 18.21875 -30.3125 18.21875 -27.25 C 18.21875 -24.1875 18.851562 -21.472656 20.125 -19.109375 C 21.394531 -16.742188 23.179688 -14.910156 25.484375 -13.609375 C 27.796875 -12.316406 30.429688 -11.671875 33.390625 -11.671875 C 38.429688 -11.671875 42.710938 -13.800781 46.234375 -18.0625 L 56.046875 -9.1875 C 53.398438 -5.863281 50.078125 -3.316406 46.078125 -1.546875 C 42.085938 0.210938 37.597656 1.09375 32.609375 1.09375 Z M 32.609375 1.09375 "/></g></g></g><g fill="#ffffff" fill-opacity="1"><g transform="translate(95.359377, 90.825803)"><g><path d="M 18.84375 -37.125 C 20.34375 -39.050781 22.296875 -40.492188 24.703125 -41.453125 C 27.117188 -42.410156 29.882812 -42.890625 33 -42.890625 L 33 -29.578125 C 31.65625 -29.734375 30.539062 -29.8125 29.65625 -29.8125 C 26.488281 -29.8125 24.007812 -28.953125 22.21875 -27.234375 C 20.425781 -25.523438 19.53125 -22.910156 19.53125 -19.390625 L 19.53125 0 L 4.75 0 L 4.75 -42.1875 L 18.84375 -42.1875 Z M 18.84375 -37.125 "/></g></g></g><g fill="#ffffff" fill-opacity="1"><g transform="translate(129.839843, 90.825803)"><g><path d="M 47.875 -21.015625 C 47.875 -20.910156 47.796875 -19.691406 47.640625 -17.359375 L 16.96875 -17.359375 C 17.59375 -15.179688 18.800781 -13.507812 20.59375 -12.34375 C 22.382812 -11.175781 24.628906 -10.59375 27.328125 -10.59375 C 29.347656 -10.59375 31.097656 -10.875 32.578125 -11.4375 C 34.054688 -12.007812 35.546875 -12.945312 37.046875 -14.25 L 44.84375 -6.15625 C 40.738281 -1.582031 34.742188 0.703125 26.859375 0.703125 C 21.921875 0.703125 17.582031 -0.226562 13.84375 -2.09375 C 10.113281 -3.96875 7.222656 -6.566406 5.171875 -9.890625 C 3.128906 -13.210938 2.109375 -16.972656 2.109375 -21.171875 C 2.109375 -25.328125 3.101562 -29.050781 5.09375 -32.34375 C 7.09375 -35.632812 9.859375 -38.210938 13.390625 -40.078125 C 16.921875 -41.953125 20.890625 -42.890625 25.296875 -42.890625 C 29.503906 -42.890625 33.316406 -42.019531 36.734375 -40.28125 C 40.160156 -38.539062 42.875 -36.023438 44.875 -32.734375 C 46.875 -29.441406 47.875 -25.535156 47.875 -21.015625 Z M 25.375 -32.390625 C 23.09375 -32.390625 21.1875 -31.738281 19.65625 -30.4375 C 18.125 -29.132812 17.148438 -27.367188 16.734375 -25.140625 L 34.015625 -25.140625 C 33.597656 -27.367188 32.625 -29.132812 31.09375 -30.4375 C 29.5625 -31.738281 27.65625 -32.390625 25.375 -32.390625 Z M 25.375 -32.390625 "/></g></g></g><g fill="#ffffff" fill-opacity="1"><g transform="translate(179.809276, 90.825803)"><g><path d="M 22.734375 -42.890625 C 29.734375 -42.890625 35.078125 -41.289062 38.765625 -38.09375 C 42.453125 -34.90625 44.296875 -30.019531 44.296875 -23.4375 L 44.296875 0 L 30.515625 0 L 30.515625 -5.453125 C 28.390625 -1.347656 24.238281 0.703125 18.0625 0.703125 C 14.789062 0.703125 11.960938 0.132812 9.578125 -1 C 7.191406 -2.144531 5.382812 -3.691406 4.15625 -5.640625 C 2.9375 -7.585938 2.328125 -9.804688 2.328125 -12.296875 C 2.328125 -16.296875 3.859375 -19.394531 6.921875 -21.59375 C 9.984375 -23.800781 14.707031 -24.90625 21.09375 -24.90625 L 29.5 -24.90625 C 29.238281 -29.375 26.253906 -31.609375 20.546875 -31.609375 C 18.523438 -31.609375 16.472656 -31.28125 14.390625 -30.625 C 12.316406 -29.976562 10.554688 -29.085938 9.109375 -27.953125 L 4.125 -37.984375 C 6.457031 -39.546875 9.296875 -40.753906 12.640625 -41.609375 C 15.992188 -42.460938 19.359375 -42.890625 22.734375 -42.890625 Z M 22.1875 -8.640625 C 23.894531 -8.640625 25.394531 -9.050781 26.6875 -9.875 C 27.988281 -10.707031 28.925781 -11.929688 29.5 -13.546875 L 29.5 -17.203125 L 23.125 -17.203125 C 18.8125 -17.203125 16.65625 -15.773438 16.65625 -12.921875 C 16.65625 -11.617188 17.144531 -10.578125 18.125 -9.796875 C 19.113281 -9.023438 20.46875 -8.640625 22.1875 -8.640625 Z M 22.1875 -8.640625 "/></g></g></g><g fill="#ffffff" fill-opacity="1"><g transform="translate(228.689037, 90.825803)"><g><path d="M 33.859375 -1.71875 C 32.617188 -0.9375 31.101562 -0.335938 29.3125 0.078125 C 27.519531 0.492188 25.613281 0.703125 23.59375 0.703125 C 18.082031 0.703125 13.847656 -0.644531 10.890625 -3.34375 C 7.941406 -6.039062 6.46875 -10.0625 6.46875 -15.40625 L 6.46875 -29.578125 L 0.3125 -29.578125 L 0.3125 -40.640625 L 6.46875 -40.640625 L 6.46875 -51.609375 L 21.25 -51.609375 L 21.25 -40.640625 L 30.90625 -40.640625 L 30.90625 -29.578125 L 21.25 -29.578125 L 21.25 -15.5625 C 21.25 -14.0625 21.648438 -12.882812 22.453125 -12.03125 C 23.265625 -11.175781 24.34375 -10.75 25.6875 -10.75 C 27.394531 -10.75 28.898438 -11.1875 30.203125 -12.0625 Z M 33.859375 -1.71875 "/></g></g></g><g fill="#ffffff" fill-opacity="1"><g transform="translate(263.480845, 90.825803)"><g><path d="M 47.875 -21.015625 C 47.875 -20.910156 47.796875 -19.691406 47.640625 -17.359375 L 16.96875 -17.359375 C 17.59375 -15.179688 18.800781 -13.507812 20.59375 -12.34375 C 22.382812 -11.175781 24.628906 -10.59375 27.328125 -10.59375 C 29.347656 -10.59375 31.097656 -10.875 32.578125 -11.4375 C 34.054688 -12.007812 35.546875 -12.945312 37.046875 -14.25 L 44.84375 -6.15625 C 40.738281 -1.582031 34.742188 0.703125 26.859375 0.703125 C 21.921875 0.703125 17.582031 -0.226562 13.84375 -2.09375 C 10.113281 -3.96875 7.222656 -6.566406 5.171875 -9.890625 C 3.128906 -13.210938 2.109375 -16.972656 2.109375 -21.171875 C 2.109375 -25.328125 3.101562 -29.050781 5.09375 -32.34375 C 7.09375 -35.632812 9.859375 -38.210938 13.390625 -40.078125 C 16.921875 -41.953125 20.890625 -42.890625 25.296875 -42.890625 C 29.503906 -42.890625 33.316406 -42.019531 36.734375 -40.28125 C 40.160156 -38.539062 42.875 -36.023438 44.875 -32.734375 C 46.875 -29.441406 47.875 -25.535156 47.875 -21.015625 Z M 25.375 -32.390625 C 23.09375 -32.390625 21.1875 -31.738281 19.65625 -30.4375 C 18.125 -29.132812 17.148438 -27.367188 16.734375 -25.140625 L 34.015625 -25.140625 C 33.597656 -27.367188 32.625 -29.132812 31.09375 -30.4375 C 29.5625 -31.738281 27.65625 -32.390625 25.375 -32.390625 Z M 25.375 -32.390625 "/></g></g></g><g fill="#ffffff" fill-opacity="1"><g transform="translate(313.450279, 90.825803)"><g><path d="M 39.859375 0 L 28.5625 -16.890625 L 17.4375 0 L -0.15625 0 L 19.6875 -27.5625 L 0.703125 -54.484375 L 18.0625 -54.484375 L 28.953125 -38.765625 L 39.703125 -54.484375 L 56.359375 -54.484375 L 37.359375 -28.171875 L 57.609375 0 Z M 39.859375 0 "/></g></g></g></svg>