<svg xmlns="http://www.w3.org/2000/svg" xmlns:xlink="http://www.w3.org/1999/xlink" width="500" zoomAndPan="magnify" viewBox="0 0 375 374.999991" height="500" preserveAspectRatio="xMidYMid meet" version="1.0"><defs><g/><clipPath id="568514f283"><path d="M 293.878906 116.960938 L 331.378906 116.960938 L 331.378906 210.710938 L 293.878906 210.710938 Z M 293.878906 116.960938 " clip-rule="nonzero"/></clipPath></defs><g clip-path="url(#568514f283)"><path fill="#ff1616" d="M 300.773438 134.253906 C 300.773438 134.269531 300.773438 134.285156 300.773438 134.300781 L 300.742188 134.347656 C 300.757812 134.316406 300.757812 134.285156 300.773438 134.253906 Z M 294.28125 153.363281 C 294.660156 155.257812 295.480469 157.535156 296.742188 160.210938 C 297.339844 161.429688 297.984375 162.617188 298.664062 163.773438 C 301.847656 168.914062 303.421875 171.523438 303.421875 171.632812 C 303.941406 172.476562 304.527344 173.773438 305.203125 175.523438 C 305.785156 177.367188 306.179688 179.023438 306.355469 180.523438 C 306.464844 181.492188 306.558594 182.414062 306.621094 183.257812 C 306.714844 185.476562 306.796875 186.914062 306.828125 187.585938 L 306.589844 188.539062 C 306.558594 188.632812 306.621094 188.742188 306.746094 188.882812 L 306.761719 188.867188 C 306.875 188.710938 306.984375 188.554688 307.09375 188.398438 C 307.109375 188.414062 307.125 188.414062 307.140625 188.429688 L 307.15625 188.398438 C 307.171875 188.351562 307.1875 188.304688 307.1875 188.257812 C 308.59375 186.210938 309.648438 184.132812 310.371094 182.007812 C 310.734375 181.039062 311.035156 179.773438 311.253906 178.242188 C 311.398438 177.082031 311.445312 175.851562 311.398438 174.535156 C 311.351562 173.550781 311.175781 172.242188 310.859375 170.585938 C 310.734375 169.773438 310.261719 167.976562 309.425781 165.144531 C 308.84375 163.304688 308.464844 162.117188 308.261719 161.570312 C 306.132812 156.835938 304.855469 153.769531 304.414062 152.378906 C 304.054688 151.382812 303.722656 150.335938 303.453125 149.207031 C 308.308594 154.628906 311.617188 158.644531 313.367188 161.242188 C 315.953125 164.898438 317.542969 168.492188 318.125 172.039062 C 318.363281 173.710938 318.363281 175.476562 318.125 177.335938 C 317.96875 178.585938 317.714844 179.773438 317.386719 180.914062 C 317.164062 181.757812 316.582031 183.398438 315.605469 185.789062 L 311.019531 195.992188 C 310.183594 198.101562 309.664062 199.820312 309.457031 201.132812 C 309.113281 203.054688 309.015625 204.789062 309.175781 206.304688 C 309.285156 207.507812 309.503906 208.726562 309.835938 209.976562 C 309.898438 210.460938 310.042969 210.710938 310.246094 210.710938 C 310.261719 210.710938 310.277344 210.710938 310.292969 210.695312 L 310.308594 210.679688 C 310.324219 210.132812 310.355469 209.601562 310.402344 209.085938 C 311.414062 206.226562 312.609375 203.789062 314.011719 201.757812 C 314.53125 200.960938 315.226562 199.992188 316.09375 198.820312 C 320.554688 193.304688 323.183594 189.929688 324.003906 188.695312 C 325.535156 186.554688 326.746094 184.601562 327.691406 182.820312 C 329.078125 180.132812 330.070312 177.628906 330.640625 175.289062 C 331.144531 172.992188 331.363281 171.039062 331.285156 169.429688 C 331.191406 167.101562 330.828125 164.925781 330.183594 162.945312 C 329.347656 160.753906 328.464844 158.878906 327.566406 157.320312 C 326.320312 155.144531 325.0625 153.164062 323.785156 151.367188 L 314.894531 139.332031 C 313.210938 136.816406 312.074219 134.832031 311.492188 133.363281 C 310.546875 131.253906 309.867188 128.894531 309.457031 126.316406 C 309.347656 125.910156 309.207031 124.394531 309.03125 121.769531 L 308.90625 118.332031 C 308.9375 117.972656 308.9375 117.722656 308.9375 117.582031 C 308.96875 117.394531 308.984375 117.175781 309.015625 116.957031 C 309 117.097656 308.96875 117.253906 308.9375 117.425781 C 308.921875 117.347656 308.890625 117.300781 308.8125 117.300781 L 308.734375 117.332031 C 308.65625 117.394531 308.496094 117.535156 308.292969 117.753906 C 304.351562 119.894531 300.839844 124.628906 297.75 131.992188 C 296.140625 135.785156 295.023438 139.660156 294.375 143.628906 C 294.046875 145.867188 293.886719 147.648438 293.933594 148.992188 C 293.949219 150.753906 294.0625 152.210938 294.28125 153.363281 " fill-opacity="1" fill-rule="evenodd"/></g><g fill="#ff1616" fill-opacity="1"><g transform="translate(40.247382, 196.882926)"><g><path d="M 23.765625 0.796875 C 19.609375 0.796875 15.875 -0.0820312 12.5625 -1.84375 C 9.257812 -3.601562 6.660156 -6.050781 4.765625 -9.1875 C 2.867188 -12.332031 1.921875 -15.890625 1.921875 -19.859375 C 1.921875 -23.828125 2.867188 -27.378906 4.765625 -30.515625 C 6.660156 -33.660156 9.257812 -36.113281 12.5625 -37.875 C 15.875 -39.632812 19.609375 -40.515625 23.765625 -40.515625 C 27.398438 -40.515625 30.671875 -39.867188 33.578125 -38.578125 C 36.492188 -37.296875 38.914062 -35.441406 40.84375 -33.015625 L 33.703125 -26.546875 C 31.128906 -29.648438 28.007812 -31.203125 24.34375 -31.203125 C 22.1875 -31.203125 20.265625 -30.726562 18.578125 -29.78125 C 16.898438 -28.832031 15.597656 -27.5 14.671875 -25.78125 C 13.742188 -24.0625 13.28125 -22.085938 13.28125 -19.859375 C 13.28125 -17.628906 13.742188 -15.648438 14.671875 -13.921875 C 15.597656 -12.203125 16.898438 -10.867188 18.578125 -9.921875 C 20.265625 -8.984375 22.1875 -8.515625 24.34375 -8.515625 C 28.007812 -8.515625 31.128906 -10.0625 33.703125 -13.15625 L 40.84375 -6.6875 C 38.914062 -4.269531 36.492188 -2.414062 33.578125 -1.125 C 30.671875 0.15625 27.398438 0.796875 23.765625 0.796875 Z M 23.765625 0.796875 "/></g></g></g><g fill="#ff1616" fill-opacity="1"><g transform="translate(82.105782, 196.882926)"><g><path d="M 13.734375 -27.0625 C 14.828125 -28.457031 16.253906 -29.503906 18.015625 -30.203125 C 19.773438 -30.910156 21.789062 -31.265625 24.0625 -31.265625 L 24.0625 -21.5625 C 23.070312 -21.675781 22.253906 -21.734375 21.609375 -21.734375 C 19.304688 -21.734375 17.5 -21.109375 16.1875 -19.859375 C 14.882812 -18.609375 14.234375 -16.695312 14.234375 -14.125 L 14.234375 0 L 3.453125 0 L 3.453125 -30.75 L 13.734375 -30.75 Z M 13.734375 -27.0625 "/></g></g></g><g fill="#ff1616" fill-opacity="1"><g transform="translate(107.232165, 196.882926)"><g><path d="M 34.890625 -15.3125 C 34.890625 -15.238281 34.832031 -14.351562 34.71875 -12.65625 L 12.375 -12.65625 C 12.820312 -11.0625 13.695312 -9.835938 15 -8.984375 C 16.3125 -8.140625 17.945312 -7.71875 19.90625 -7.71875 C 21.382812 -7.71875 22.660156 -7.925781 23.734375 -8.34375 C 24.816406 -8.757812 25.90625 -9.4375 27 -10.375 L 32.671875 -4.484375 C 29.691406 -1.148438 25.328125 0.515625 19.578125 0.515625 C 15.984375 0.515625 12.820312 -0.164062 10.09375 -1.53125 C 7.375 -2.894531 5.265625 -4.785156 3.765625 -7.203125 C 2.273438 -9.628906 1.53125 -12.375 1.53125 -15.4375 C 1.53125 -18.457031 2.257812 -21.164062 3.71875 -23.5625 C 5.175781 -25.96875 7.1875 -27.851562 9.75 -29.21875 C 12.320312 -30.582031 15.21875 -31.265625 18.4375 -31.265625 C 21.5 -31.265625 24.273438 -30.628906 26.765625 -29.359375 C 29.265625 -28.085938 31.242188 -26.25 32.703125 -23.84375 C 34.160156 -21.445312 34.890625 -18.601562 34.890625 -15.3125 Z M 18.5 -23.59375 C 16.832031 -23.59375 15.441406 -23.117188 14.328125 -22.171875 C 13.210938 -21.234375 12.503906 -19.953125 12.203125 -18.328125 L 24.796875 -18.328125 C 24.492188 -19.953125 23.78125 -21.234375 22.65625 -22.171875 C 21.539062 -23.117188 20.15625 -23.59375 18.5 -23.59375 Z M 18.5 -23.59375 "/></g></g></g><g fill="#ff1616" fill-opacity="1"><g transform="translate(143.645568, 196.882926)"><g><path d="M 16.5625 -31.265625 C 21.664062 -31.265625 25.5625 -30.097656 28.25 -27.765625 C 30.9375 -25.441406 32.28125 -21.878906 32.28125 -17.078125 L 32.28125 0 L 22.234375 0 L 22.234375 -3.96875 C 20.679688 -0.976562 17.65625 0.515625 13.15625 0.515625 C 10.78125 0.515625 8.722656 0.0976562 6.984375 -0.734375 C 5.242188 -1.566406 3.925781 -2.691406 3.03125 -4.109375 C 2.144531 -5.523438 1.703125 -7.144531 1.703125 -8.96875 C 1.703125 -11.875 2.816406 -14.128906 5.046875 -15.734375 C 7.273438 -17.347656 10.71875 -18.15625 15.375 -18.15625 L 21.5 -18.15625 C 21.3125 -21.40625 19.140625 -23.03125 14.984375 -23.03125 C 13.503906 -23.03125 12.003906 -22.789062 10.484375 -22.3125 C 8.972656 -21.84375 7.691406 -21.195312 6.640625 -20.375 L 3 -27.6875 C 4.707031 -28.820312 6.78125 -29.703125 9.21875 -30.328125 C 11.65625 -30.953125 14.101562 -31.265625 16.5625 -31.265625 Z M 16.171875 -6.296875 C 17.421875 -6.296875 18.515625 -6.597656 19.453125 -7.203125 C 20.398438 -7.804688 21.082031 -8.695312 21.5 -9.875 L 21.5 -12.53125 L 16.84375 -12.53125 C 13.707031 -12.53125 12.140625 -11.492188 12.140625 -9.421875 C 12.140625 -8.472656 12.5 -7.710938 13.21875 -7.140625 C 13.9375 -6.578125 14.921875 -6.296875 16.171875 -6.296875 Z M 16.171875 -6.296875 "/></g></g></g><g fill="#ff1616" fill-opacity="1"><g transform="translate(179.264912, 196.882926)"><g><path d="M 24.671875 -1.25 C 23.765625 -0.675781 22.660156 -0.238281 21.359375 0.0625 C 20.054688 0.363281 18.664062 0.515625 17.1875 0.515625 C 13.175781 0.515625 10.09375 -0.46875 7.9375 -2.4375 C 5.78125 -4.40625 4.703125 -7.335938 4.703125 -11.234375 L 4.703125 -21.5625 L 0.234375 -21.5625 L 0.234375 -29.609375 L 4.703125 -29.609375 L 4.703125 -37.609375 L 15.484375 -37.609375 L 15.484375 -29.609375 L 22.53125 -29.609375 L 22.53125 -21.5625 L 15.484375 -21.5625 L 15.484375 -11.34375 C 15.484375 -10.25 15.773438 -9.390625 16.359375 -8.765625 C 16.953125 -8.140625 17.738281 -7.828125 18.71875 -7.828125 C 19.96875 -7.828125 21.066406 -8.148438 22.015625 -8.796875 Z M 24.671875 -1.25 "/></g></g></g><g fill="#ff1616" fill-opacity="1"><g transform="translate(204.618175, 196.882926)"><g><path d="M 34.890625 -15.3125 C 34.890625 -15.238281 34.832031 -14.351562 34.71875 -12.65625 L 12.375 -12.65625 C 12.820312 -11.0625 13.695312 -9.835938 15 -8.984375 C 16.3125 -8.140625 17.945312 -7.71875 19.90625 -7.71875 C 21.382812 -7.71875 22.660156 -7.925781 23.734375 -8.34375 C 24.816406 -8.757812 25.90625 -9.4375 27 -10.375 L 32.671875 -4.484375 C 29.691406 -1.148438 25.328125 0.515625 19.578125 0.515625 C 15.984375 0.515625 12.820312 -0.164062 10.09375 -1.53125 C 7.375 -2.894531 5.265625 -4.785156 3.765625 -7.203125 C 2.273438 -9.628906 1.53125 -12.375 1.53125 -15.4375 C 1.53125 -18.457031 2.257812 -21.164062 3.71875 -23.5625 C 5.175781 -25.96875 7.1875 -27.851562 9.75 -29.21875 C 12.320312 -30.582031 15.21875 -31.265625 18.4375 -31.265625 C 21.5 -31.265625 24.273438 -30.628906 26.765625 -29.359375 C 29.265625 -28.085938 31.242188 -26.25 32.703125 -23.84375 C 34.160156 -21.445312 34.890625 -18.601562 34.890625 -15.3125 Z M 18.5 -23.59375 C 16.832031 -23.59375 15.441406 -23.117188 14.328125 -22.171875 C 13.210938 -21.234375 12.503906 -19.953125 12.203125 -18.328125 L 24.796875 -18.328125 C 24.492188 -19.953125 23.78125 -21.234375 22.65625 -22.171875 C 21.539062 -23.117188 20.15625 -23.59375 18.5 -23.59375 Z M 18.5 -23.59375 "/></g></g></g><g fill="#ff1616" fill-opacity="1"><g transform="translate(241.031578, 196.882926)"><g><path d="M 29.046875 0 L 20.828125 -12.3125 L 12.703125 0 L -0.109375 0 L 14.359375 -20.078125 L 0.515625 -39.71875 L 13.15625 -39.71875 L 21.109375 -28.25 L 28.9375 -39.71875 L 41.078125 -39.71875 L 27.234375 -20.53125 L 41.984375 0 Z M 29.046875 0 "/></g></g></g></svg>